<svg width="64" height="43" xmlns="http://www.w3.org/2000/svg" xmlns:html="http://www.w3.org/1999/xhtml" xmlns:xlink="http://www.w3.org/1999/xlink" version="1.1"><g data-id="(zXp#B9Tt?)Cs^_E23.r" transform="translate(-142.96999168395973, -1.5893249511712781)" ><path  stroke="#2e8eb8" fill="url(#blocklyDisabledPattern2557560869192067)" d=" m 20,0  h 21.5703125 a 20 20 0 0,1 20,20  v 0 a 20 20 0 0,1 -20,20  V 40  h -21.5703125 a 20 20 0 0,1 -20,-20  v 0 a 20 20 0 0,1 20,-20 z
"></path><g ><text  style="fill:#ffffff;" dominant-baseline="central" x="0" y="9">timer</text></g><path  stroke="#2e8eb8" fill="none" d=" m 20,0  h 21.5703125 a 20 20 0 0,1 20,20  v 0 a 20 20 0 0,1 -20,20  V 40  h -21.5703125 a 20 20 0 0,1 -20,-20  v 0 a 20 20 0 0,1 20,-20 z
" filter="url(#blocklySelectedGlowFilter2557560869192067)"></path></g></svg>